<?xml version="1.0" encoding="utf-8"?>
<!-- Generator: Adobe Illustrator 16.0.0, SVG Export Plug-In . SVG Version: 6.00 Build 0)  -->
<!DOCTYPE svg PUBLIC "-//W3C//DTD SVG 1.1//EN" "http://www.w3.org/Graphics/SVG/1.1/DTD/svg11.dtd">
<svg version="1.1" id="Layer_1" xmlns="http://www.w3.org/2000/svg" xmlns:xlink="http://www.w3.org/1999/xlink" x="0px" y="0px"
	 width="595.28px" height="841.89px" viewBox="0 0 595.28 841.89" enable-background="new 0 0 595.28 841.89" xml:space="preserve">
<path fill="#FFFFFF" d="M264.454,296.244l50.88-0.025c3.573,0,6.472,2.628,6.48,5.877l0.03,69.069
	c0.005,3.245-2.896,5.879-6.467,5.882l-50.876,0.024l-6.475,0.006l-0.044-80.822L264.454,296.244z"/>
<text transform="matrix(1 0 0 1 124.6279 358.8228)" fill="#FFFFFF" font-family="'Roboto-Bold'" font-size="67.7105">DAS    ED</text>
<line fill="none" stroke="#4DABE0" stroke-width="6" stroke-miterlimit="5" x1="274.86" y1="310.056" x2="274.86" y2="360.486"/>
<line fill="none" stroke="#4DABE0" stroke-width="6" stroke-miterlimit="5" x1="305" y1="310.056" x2="305" y2="360.486"/>
<line fill="none" stroke="#4CABDF" stroke-width="6" stroke-miterlimit="5" x1="272.34" y1="335.271" x2="307.605" y2="335.271"/>
<path fill="#FFFFFF" d="M97.259,305.452c-11.208,0-20.292,9.084-20.292,20.292c0,1.582,0.196,3.113,0.54,4.59
	c0.122,0.521,0.248,1.039,0.408,1.545l5.13,8.334l14.214,23.094l14.21-23.088l5.127-8.34c0.163-0.507,0.287-1.024,0.41-1.545
	c0.34-1.477,0.541-3.008,0.541-4.59C117.547,314.536,108.466,305.452,97.259,305.452z M96.57,334.38
	c-5.648,0-10.23-4.579-10.23-10.229c0-5.648,4.582-10.227,10.23-10.227c5.648,0,10.225,4.579,10.225,10.227
	C106.794,329.802,102.218,334.38,96.57,334.38z"/>
<g>
	<text transform="matrix(1 0 0 1 414.0381 358.8228)" fill="#FFFFFF" font-family="'Roboto-Regular'" font-size="62.068">WAY</text>
</g>
</svg>
